<svg width="110" height="110" viewBox="0 0 110 110" fill="none" xmlns="http://www.w3.org/2000/svg">
<path d="M0.196854 46.1115C1.1203 56.5073 5.13624 66.6012 11.7507 75.2284C14.9721 79.4342 21.0282 84.8909 25.9676 88.0399C28.0937 89.3986 33.5055 92.0515 36.0826 93.0005C43.0407 95.5671 51.7168 96.7965 58.3957 96.171C75.5333 94.575 89.6213 83.0576 94.4747 66.6012C94.8183 65.4796 95.2049 63.9267 95.3552 63.1503C95.4841 62.3738 95.6774 61.6189 95.7418 61.4679C95.8492 61.2738 96.5579 61.8346 97.9323 63.1934C100.209 65.4149 101.454 66.9894 102.936 69.4481C104.117 71.4108 104.826 71.9716 106.222 72.1226C107.618 72.2736 108.777 71.605 109.465 70.2677C109.959 69.3403 109.959 69.1462 109.851 66.2776C109.615 60.8856 108.412 54.7818 106.587 49.7996C105.642 47.2114 103.001 41.7763 101.648 39.641C97.2666 32.7177 90.8454 26.2688 83.9517 21.8689C81.8256 20.5101 76.4138 17.8572 73.8367 16.9082C66.8786 14.3416 58.2024 13.1122 51.5235 13.7377C34.3645 15.3338 20.298 26.8511 15.4445 43.3076C15.1009 44.4291 14.7144 45.982 14.564 46.7585C14.4352 47.5349 14.2419 48.2898 14.1775 48.4408C14.0701 48.6349 13.3614 48.0741 11.987 46.7154C9.71054 44.4938 8.46496 42.9194 6.98314 40.4606C5.80198 38.4979 5.09329 37.9371 3.69737 37.7862C2.30146 37.6352 1.1203 38.3038 0.454559 39.641C-0.0608551 40.6763 -0.12528 42.3586 0.196854 46.1115ZM34.6437 51.6113C35.0732 49.2173 35.5457 47.8153 36.5121 45.8311C41.5589 35.5431 53.8429 31.3589 64.0438 36.4274C74.2662 41.4959 78.4539 53.8328 73.4286 64.0561C71.367 68.2188 68.1886 71.4324 64.0438 73.4814C58.2454 76.3499 51.6739 76.3715 45.8969 73.5029C38.8959 70.0305 34.4719 62.9777 34.3645 55.1701C34.3645 54.1564 34.4934 52.5603 34.6437 51.6113Z" fill="white"/>
<path d="M34.6437 51.6113C35.0732 49.2173 35.5457 47.8153 36.5121 45.8311C41.5589 35.5431 53.8429 31.3589 64.0438 36.4274C74.2662 41.4959 78.4539 53.8328 73.4286 64.0561C71.367 68.2188 68.1886 71.4324 64.0438 73.4814C58.2454 76.3499 51.6739 76.3715 45.8969 73.5029C38.8959 70.0305 34.4719 62.9777 34.3645 55.1701C34.3645 54.1564 34.4934 52.5603 34.6437 51.6113Z" fill="white"/>
<path d="M63.7972 0.196907C53.4014 1.12036 43.3075 5.13629 34.6803 11.7508C30.4745 14.9721 25.0178 21.0282 21.8688 25.9676C20.51 28.0937 17.8572 33.5056 16.9082 36.0826C14.3416 43.0407 13.1122 51.7169 13.7376 58.3958C15.3337 75.5333 26.8511 89.6213 43.3075 94.4748C44.4291 94.8184 45.982 95.205 46.7584 95.3553C47.5349 95.4841 48.2898 95.6774 48.4407 95.7419C48.6348 95.8492 48.0741 96.5579 46.7153 97.9324C44.4938 100.209 42.9193 101.454 40.4605 102.936C38.4978 104.117 37.9371 104.826 37.7861 106.222C37.6351 107.618 38.3037 108.778 39.6409 109.465C40.5684 109.959 40.7625 109.959 43.631 109.851C49.0231 109.615 55.1268 108.412 60.1091 106.587C62.6972 105.642 68.1324 103.001 70.2677 101.648C77.191 97.2666 83.6399 90.8454 88.0398 83.9517C89.3986 81.8257 92.0514 76.4138 93.0004 73.8367C95.567 66.8786 96.7964 58.2025 96.1709 51.5236C94.5749 34.3646 83.0575 20.2981 66.6011 15.4446C65.4795 15.101 63.9266 14.7144 63.1502 14.5641C62.3737 14.4352 61.6188 14.2419 61.4679 14.1775C61.2738 14.0701 61.8345 13.3614 63.1933 11.987C65.4148 9.71059 66.9893 8.46501 69.4481 6.98319C71.4108 5.80203 71.9715 5.09334 72.1225 3.69743C72.2735 2.30151 71.6049 1.12036 70.2677 0.454613C69.2324 -0.0608017 67.5501 -0.125227 63.7972 0.196907ZM58.2974 34.6438C60.6914 35.0733 62.0933 35.5457 64.0776 36.5121C74.3656 41.5589 78.5498 53.843 73.4813 64.0439C68.4128 74.2663 56.0758 78.454 45.8526 73.4287C41.6899 71.367 38.4763 68.1887 36.4273 64.0439C33.5587 58.2455 33.5372 51.6739 36.4057 45.897C39.8782 38.8959 46.931 34.472 54.7386 34.3646C55.7523 34.3646 57.3484 34.4934 58.2974 34.6438Z" fill="white"/>
<path d="M58.2974 34.6438C60.6914 35.0733 62.0933 35.5457 64.0776 36.5121C74.3656 41.5589 78.5498 53.843 73.4813 64.0439C68.4128 74.2663 56.0758 78.454 45.8526 73.4287C41.6899 71.367 38.4763 68.1887 36.4273 64.0439C33.5587 58.2455 33.5372 51.6739 36.4057 45.897C39.8782 38.8959 46.931 34.472 54.7386 34.3646C55.7523 34.3646 57.3484 34.4934 58.2974 34.6438Z" fill="white"/>
</svg>
