<svg width="166" height="166" viewBox="0 0 166 166" fill="none" xmlns="http://www.w3.org/2000/svg">
<circle cx="82.7548" cy="82.7548" r="82.7548" fill="#A044FF"/>
<g clip-path="url(#clip0_277_543)">
<path d="M28.1969 73.1115C29.1203 83.5073 33.1362 93.6012 39.7507 102.228C42.9721 106.434 49.0282 111.891 53.9676 115.04C56.0937 116.399 61.5055 119.052 64.0826 120.001C71.0407 122.567 79.7168 123.797 86.3957 123.171C103.533 121.575 117.621 110.058 122.475 93.6012C122.818 92.4796 123.205 90.9267 123.355 90.1503C123.484 89.3738 123.677 88.6189 123.742 88.4679C123.849 88.2738 124.558 88.8346 125.932 90.1934C128.209 92.4149 129.454 93.9894 130.936 96.4481C132.117 98.4108 132.826 98.9716 134.222 99.1226C135.618 99.2736 136.777 98.605 137.465 97.2677C137.959 96.3403 137.959 96.1462 137.851 93.2776C137.615 87.8856 136.412 81.7818 134.587 76.7996C133.642 74.2114 131.001 68.7763 129.648 66.641C125.267 59.7177 118.845 53.2688 111.952 48.8689C109.826 47.5101 104.414 44.8572 101.837 43.9082C94.8786 41.3416 86.2024 40.1122 79.5235 40.7377C62.3645 42.3338 48.298 53.8511 43.4445 70.3076C43.1009 71.4291 42.7144 72.982 42.564 73.7585C42.4352 74.5349 42.2419 75.2898 42.1775 75.4408C42.0701 75.6349 41.3614 75.0741 39.987 73.7154C37.7105 71.4938 36.465 69.9194 34.9831 67.4606C33.802 65.4979 33.0933 64.9371 31.6974 64.7862C30.3015 64.6352 29.1203 65.3038 28.4546 66.641C27.9391 67.6763 27.8747 69.3586 28.1969 73.1115ZM62.6437 78.6113C63.0732 76.2173 63.5457 74.8153 64.5121 72.8311C69.5589 62.5431 81.8429 58.3589 92.0438 63.4274C102.266 68.4959 106.454 80.8328 101.429 91.0561C99.367 95.2188 96.1886 98.4324 92.0438 100.481C86.2454 103.35 79.6739 103.372 73.8969 100.503C66.8959 97.0305 62.4719 89.9777 62.3645 82.1701C62.3645 81.1564 62.4934 79.5603 62.6437 78.6113Z" fill="white"/>
<path d="M62.6437 78.6113C63.0732 76.2173 63.5457 74.8153 64.5121 72.8311C69.5589 62.5431 81.8429 58.3589 92.0438 63.4274C102.266 68.4959 106.454 80.8328 101.429 91.0561C99.367 95.2188 96.1886 98.4324 92.0438 100.481C86.2454 103.35 79.6739 103.372 73.8969 100.503C66.8959 97.0305 62.4719 89.9777 62.3645 82.1701C62.3645 81.1564 62.4934 79.5603 62.6437 78.6113Z" fill="white"/>
<path d="M91.7972 27.1969C81.4014 28.1204 71.3075 32.1363 62.6803 38.7508C58.4745 41.9721 53.0178 48.0282 49.8688 52.9676C48.51 55.0937 45.8572 60.5056 44.9082 63.0826C42.3416 70.0407 41.1122 78.7169 41.7376 85.3958C43.3337 102.533 54.8511 116.621 71.3075 121.475C72.4291 121.818 73.982 122.205 74.7584 122.355C75.5349 122.484 76.2898 122.677 76.4407 122.742C76.6348 122.849 76.0741 123.558 74.7153 124.932C72.4938 127.209 70.9193 128.454 68.4605 129.936C66.4978 131.117 65.9371 131.826 65.7861 133.222C65.6351 134.618 66.3037 135.778 67.6409 136.465C68.5684 136.959 68.7625 136.959 71.631 136.851C77.0231 136.615 83.1268 135.412 88.1091 133.587C90.6972 132.642 96.1324 130.001 98.2677 128.648C105.191 124.267 111.64 117.845 116.04 110.952C117.399 108.826 120.051 103.414 121 100.837C123.567 93.8786 124.796 85.2025 124.171 78.5236C122.575 61.3646 111.058 47.2981 94.6011 42.4446C93.4795 42.101 91.9266 41.7144 91.1502 41.5641C90.3737 41.4352 89.6188 41.2419 89.4679 41.1775C89.2738 41.0701 89.8345 40.3614 91.1933 38.987C93.4148 36.7106 94.9893 35.465 97.4481 33.9832C99.4108 32.802 99.9715 32.0933 100.123 30.6974C100.273 29.3015 99.6049 28.1204 98.2677 27.4546C97.2324 26.9392 95.5501 26.8748 91.7972 27.1969ZM86.2974 61.6438C88.6914 62.0733 90.0933 62.5457 92.0776 63.5121C102.366 68.5589 106.55 80.843 101.481 91.0439C96.4128 101.266 84.0758 105.454 73.8526 100.429C69.6899 98.367 66.4763 95.1887 64.4273 91.0439C61.5587 85.2455 61.5372 78.6739 64.4057 72.897C67.8782 65.8959 74.931 61.472 82.7386 61.3646C83.7523 61.3646 85.3484 61.4934 86.2974 61.6438Z" fill="white"/>
<path d="M86.2974 61.6438C88.6914 62.0733 90.0933 62.5457 92.0776 63.5121C102.366 68.5589 106.55 80.843 101.481 91.0439C96.4128 101.266 84.0758 105.454 73.8526 100.429C69.6899 98.367 66.4763 95.1887 64.4273 91.0439C61.5587 85.2455 61.5372 78.6739 64.4057 72.897C67.8782 65.8959 74.931 61.472 82.7386 61.3646C83.7523 61.3646 85.3484 61.4934 86.2974 61.6438Z" fill="white"/>
<path d="M86.3078 99.125C86.7369 99.125 87.1182 98.8512 87.2553 98.4445L98.0887 66.3195C98.3073 65.6714 97.8252 65 97.1411 65H90.0869C89.6358 65 89.2405 65.302 89.122 65.7373L83.5142 86.3366C83.2466 87.3197 81.8521 87.3197 81.5844 86.3366L75.9766 65.7373C75.8581 65.302 75.4628 65 75.0117 65H68.0007C67.3175 65 66.8354 65.67 67.0526 66.3178L77.8207 98.4428C77.9573 98.8503 78.339 99.125 78.7688 99.125H86.3078Z" fill="#A044FF"/>
</g>
<defs>
<clipPath id="clip0_277_543">
<rect width="109.909" height="109.909" fill="white" transform="translate(28.447 27.1539)"/>
</clipPath>
</defs>
</svg>
